# Blender v2.77 (sub 0) OBJ File: 'invaders.blend'
# www.blender.org
o Cube.036_Cube.040
v 0.600000 0.800000 -0.100000
v 0.600000 0.600000 -0.100000
v 0.400000 0.800000 -0.100000
v 0.400000 0.600000 -0.100000
v 0.600000 0.800000 0.100000
v 0.600000 0.600000 0.100000
v 0.400000 0.800000 0.100000
v 0.400000 0.600000 0.100000
vn 0.000000 0.000000 -1.000000
vn -1.000000 0.000000 0.000000
vn 0.000000 0.000000 1.000000
vn 1.000000 0.000000 0.000000
vn 0.000000 1.000000 0.000000
vn 0.000000 -1.000000 0.000000
s off
f 2//1 4//1 3//1 1//1
f 4//2 8//2 7//2 3//2
f 8//3 6//3 5//3 7//3
f 6//4 2//4 1//4 5//4
f 1//5 3//5 7//5 5//5
f 6//6 8//6 4//6 2//6
o Cube.035_Cube.039
v -0.400000 0.800000 -0.100000
v -0.400000 0.600000 -0.100000
v -0.600000 0.800000 -0.100000
v -0.600000 0.600000 -0.100000
v -0.400000 0.800000 0.100000
v -0.400000 0.600000 0.100000
v -0.600000 0.800000 0.100000
v -0.600000 0.600000 0.100000
vn 0.000000 0.000000 -1.000000
vn -1.000000 0.000000 0.000000
vn 0.000000 0.000000 1.000000
vn 1.000000 0.000000 0.000000
vn 0.000000 1.000000 0.000000
vn 0.000000 -1.000000 0.000000
s off
f 10//7 12//7 11//7 9//7
f 12//8 16//8 15//8 11//8
f 16//9 14//9 13//9 15//9
f 14//10 10//10 9//10 13//10
f 9//11 11//11 15//11 13//11
f 14//12 16//12 12//12 10//12
o Cube.034_Cube.038
v 0.800000 0.600000 -0.100000
v 0.800000 0.400000 -0.100000
v 0.600000 0.600000 -0.100000
v 0.600000 0.400000 -0.100000
v 0.800000 0.600000 0.100000
v 0.800000 0.400000 0.100000
v 0.600000 0.600000 0.100000
v 0.600000 0.400000 0.100000
vn 0.000000 0.000000 -1.000000
vn -1.000000 0.000000 0.000000
vn 0.000000 0.000000 1.000000
vn 1.000000 0.000000 0.000000
vn 0.000000 1.000000 0.000000
vn 0.000000 -1.000000 0.000000
s off
f 18//13 20//13 19//13 17//13
f 20//14 24//14 23//14 19//14
f 24//15 22//15 21//15 23//15
f 22//16 18//16 17//16 21//16
f 17//17 19//17 23//17 21//17
f 22//18 24//18 20//18 18//18
o Cube.033_Cube.037
v -0.600000 0.600000 -0.100000
v -0.600000 0.400000 -0.100000
v -0.800000 0.600000 -0.100000
v -0.800000 0.400000 -0.100000
v -0.600000 0.600000 0.100000
v -0.600000 0.400000 0.100000
v -0.800000 0.600000 0.100000
v -0.800000 0.400000 0.100000
vn 0.000000 0.000000 -1.000000
vn -1.000000 0.000000 0.000000
vn 0.000000 0.000000 1.000000
vn 1.000000 0.000000 0.000000
vn 0.000000 1.000000 0.000000
vn 0.000000 -1.000000 0.000000
s off
f 26//19 28//19 27//19 25//19
f 28//20 32//20 31//20 27//20
f 32//21 30//21 29//21 31//21
f 30//22 26//22 25//22 29//22
f 25//23 27//23 31//23 29//23
f 30//24 32//24 28//24 26//24
o Cube.032_Cube.036
v -0.600000 0.600000 -0.100000
v -0.600000 0.400000 -0.100000
v -0.800000 0.600000 -0.100000
v -0.800000 0.400000 -0.100000
v -0.600000 0.600000 0.100000
v -0.600000 0.400000 0.100000
v -0.800000 0.600000 0.100000
v -0.800000 0.400000 0.100000
vn 0.000000 0.000000 -1.000000
vn -1.000000 0.000000 0.000000
vn 0.000000 0.000000 1.000000
vn 1.000000 0.000000 0.000000
vn 0.000000 1.000000 0.000000
vn 0.000000 -1.000000 0.000000
s off
f 34//25 36//25 35//25 33//25
f 36//26 40//26 39//26 35//26
f 40//27 38//27 37//27 39//27
f 38//28 34//28 33//28 37//28
f 33//29 35//29 39//29 37//29
f 38//30 40//30 36//30 34//30
o Cube.031_Cube.035
v -0.400000 0.400000 -0.100000
v -0.400000 0.200000 -0.100000
v -0.600000 0.400000 -0.100000
v -0.600000 0.200000 -0.100000
v -0.400000 0.400000 0.100000
v -0.400000 0.200000 0.100000
v -0.600000 0.400000 0.100000
v -0.600000 0.200000 0.100000
vn 0.000000 0.000000 -1.000000
vn -1.000000 0.000000 0.000000
vn 0.000000 0.000000 1.000000
vn 1.000000 0.000000 0.000000
vn 0.000000 1.000000 0.000000
vn 0.000000 -1.000000 0.000000
s off
f 42//31 44//31 43//31 41//31
f 44//32 48//32 47//32 43//32
f 48//33 46//33 45//33 47//33
f 46//34 42//34 41//34 45//34
f 41//35 43//35 47//35 45//35
f 46//36 48//36 44//36 42//36
o Cube.030_Cube.034
v 0.600000 0.400000 -0.100000
v 0.600000 0.200000 -0.100000
v 0.400000 0.400000 -0.100000
v 0.400000 0.200000 -0.100000
v 0.600000 0.400000 0.100000
v 0.600000 0.200000 0.100000
v 0.400000 0.400000 0.100000
v 0.400000 0.200000 0.100000
vn 0.000000 0.000000 -1.000000
vn -1.000000 0.000000 0.000000
vn 0.000000 0.000000 1.000000
vn 1.000000 0.000000 0.000000
vn 0.000000 1.000000 0.000000
vn 0.000000 -1.000000 0.000000
s off
f 50//37 52//37 51//37 49//37
f 52//38 56//38 55//38 51//38
f 56//39 54//39 53//39 55//39
f 54//40 50//40 49//40 53//40
f 49//41 51//41 55//41 53//41
f 54//42 56//42 52//42 50//42
o Cube.029_Cube.033
v 0.600000 0.400000 -0.100000
v 0.600000 0.200000 -0.100000
v 0.400000 0.400000 -0.100000
v 0.400000 0.200000 -0.100000
v 0.600000 0.400000 0.100000
v 0.600000 0.200000 0.100000
v 0.400000 0.400000 0.100000
v 0.400000 0.200000 0.100000
vn 0.000000 0.000000 -1.000000
vn -1.000000 0.000000 0.000000
vn 0.000000 0.000000 1.000000
vn 1.000000 0.000000 0.000000
vn 0.000000 1.000000 0.000000
vn 0.000000 -1.000000 0.000000
s off
f 58//43 60//43 59//43 57//43
f 60//44 64//44 63//44 59//44
f 64//45 62//45 61//45 63//45
f 62//46 58//46 57//46 61//46
f 57//47 59//47 63//47 61//47
f 62//48 64//48 60//48 58//48
o Cube.028_Cube.032
v 0.200000 0.400000 -0.100000
v 0.200000 0.200000 -0.100000
v -0.200000 0.400000 -0.100000
v -0.200000 0.200000 -0.100000
v 0.200000 0.400000 0.100000
v 0.200000 0.200000 0.100000
v -0.200000 0.400000 0.100000
v -0.200000 0.200000 0.100000
vn 0.000000 0.000000 -1.000000
vn -1.000000 0.000000 0.000000
vn 0.000000 0.000000 1.000000
vn 1.000000 0.000000 0.000000
vn 0.000000 1.000000 0.000000
vn 0.000000 -1.000000 0.000000
s off
f 66//49 68//49 67//49 65//49
f 68//50 72//50 71//50 67//50
f 72//51 70//51 69//51 71//51
f 70//52 66//52 65//52 69//52
f 65//53 67//53 71//53 69//53
f 70//54 72//54 68//54 66//54
o Cube.027_Cube.031
v 0.200000 -0.600000 -0.100000
v 0.200000 -0.800000 -0.100000
v -0.200000 -0.600000 -0.100000
v -0.200000 -0.800000 -0.100000
v 0.200000 -0.600000 0.100000
v 0.200000 -0.800000 0.100000
v -0.200000 -0.600000 0.100000
v -0.200000 -0.800000 0.100000
vn 0.000000 0.000000 -1.000000
vn -1.000000 0.000000 0.000000
vn 0.000000 0.000000 1.000000
vn 1.000000 0.000000 0.000000
vn 0.000000 1.000000 0.000000
vn 0.000000 -1.000000 0.000000
s off
f 74//55 76//55 75//55 73//55
f 76//56 80//56 79//56 75//56
f 80//57 78//57 77//57 79//57
f 78//58 74//58 73//58 77//58
f 73//59 75//59 79//59 77//59
f 78//60 80//60 76//60 74//60
o Cube.026_Cube.030
v 0.400000 -0.400000 -0.100000
v 0.400000 -0.600000 -0.100000
v -0.400000 -0.400000 -0.100000
v -0.400000 -0.600000 -0.100000
v 0.400000 -0.400000 0.100000
v 0.400000 -0.600000 0.100000
v -0.400000 -0.400000 0.100000
v -0.400000 -0.600000 0.100000
vn 0.000000 0.000000 -1.000000
vn -1.000000 0.000000 0.000000
vn 0.000000 0.000000 1.000000
vn 1.000000 0.000000 0.000000
vn 0.000000 1.000000 0.000000
vn 0.000000 -1.000000 0.000000
s off
f 82//61 84//61 83//61 81//61
f 84//62 88//62 87//62 83//62
f 88//63 86//63 85//63 87//63
f 86//64 82//64 81//64 85//64
f 81//65 83//65 87//65 85//65
f 86//66 88//66 84//66 82//66
o Cube.017_Cube.029
v 0.600000 -0.200000 -0.100000
v 0.600000 -0.400000 -0.100000
v -0.600000 -0.200000 -0.100000
v -0.600000 -0.400000 -0.100000
v 0.600000 -0.200000 0.100000
v 0.600000 -0.400000 0.100000
v -0.600000 -0.200000 0.100000
v -0.600000 -0.400000 0.100000
vn 0.000000 0.000000 -1.000000
vn -1.000000 0.000000 0.000000
vn 0.000000 0.000000 1.000000
vn 1.000000 0.000000 0.000000
vn 0.000000 1.000000 0.000000
vn 0.000000 -1.000000 0.000000
s off
f 90//67 92//67 91//67 89//67
f 92//68 96//68 95//68 91//68
f 96//69 94//69 93//69 95//69
f 94//70 90//70 89//70 93//70
f 89//71 91//71 95//71 93//71
f 94//72 96//72 92//72 90//72
o Cube.016_Cube.028
v 0.800000 -0.200000 -0.100000
v 0.400000 -0.200000 -0.100000
v 0.400000 0.000000 -0.100000
v 0.200000 0.000000 -0.100000
v 0.200000 -0.200000 -0.100000
v -0.200000 -0.200000 -0.100000
v -0.200000 0.000000 -0.100000
v -0.400000 0.000000 -0.100000
v -0.400000 -0.200000 -0.100000
v -0.800000 -0.200000 -0.100000
v -0.800000 0.200000 -0.100000
v 0.800000 0.200000 -0.100000
v 0.800000 -0.200000 0.100000
v 0.800000 0.200000 0.100000
v 0.400000 -0.200000 0.100000
v 0.400000 0.000000 0.100000
v 0.200000 0.000000 0.100000
v 0.200000 -0.200000 0.100000
v -0.200000 -0.200000 0.100000
v -0.400000 -0.200000 0.100000
v -0.800000 -0.200000 0.100000
v -0.800000 0.200000 0.100000
v -0.400000 0.000000 0.100000
v -0.200000 0.000000 0.100000
vn 0.000000 0.000000 -1.000000
vn 1.000000 0.000000 0.000000
vn 0.000000 -1.000000 0.000000
vn -1.000000 0.000000 0.000000
vn 0.000000 1.000000 0.000000
vn 0.000000 0.000000 1.000000
s off
f 97//73 98//73 99//73 100//73 101//73 102//73 103//73 104//73 105//73 106//73 107//73 108//73
f 109//74 97//74 108//74 110//74
f 109//75 111//75 98//75 97//75
f 111//76 112//76 99//76 98//76
f 100//75 99//75 112//75 113//75
f 101//74 100//74 113//74 114//74
f 114//75 115//75 102//75 101//75
f 116//75 117//75 106//75 105//75
f 106//76 117//76 118//76 107//76
f 108//77 107//77 118//77 110//77
f 117//78 116//78 119//78 120//78 115//78 114//78 113//78 112//78 111//78 109//78 110//78 118//78
f 105//74 104//74 119//74 116//74
f 104//75 103//75 120//75 119//75
f 115//76 120//76 103//76 102//76
