# Blender v2.77 (sub 0) OBJ File: ''
# www.blender.org
o Cube.001
v -0.250000 -0.500000 -0.250000
v -0.250000 -0.500000 0.250000
v 0.250000 -0.500000 0.250000
v 0.250000 -0.500000 -0.250000
v -0.250000 -1.000000 -0.250000
v -0.250000 -1.000000 0.250000
v 0.250000 -1.000000 0.250000
v 0.250000 -1.000000 -0.250000
vt 0.000000 0.000000
vt 0.000000 -1.000000
vt -1.000000 -1.000000
vt -1.000000 0.000000
vt 0.000000 1.000000
vt -1.000000 1.000000
vt -1.000000 0.000000
vt -0.000000 -0.000000
vt -1.000000 1.000000
vt -1.000000 0.000000
vt 0.000000 0.000000
vt -0.000000 1.000000
vt -1.000000 1.000000
vt -1.000000 0.000000
vt 0.000000 0.000000
vt 0.000000 1.000000
vt 1.000000 1.000000
vt 1.000000 0.000000
vt 0.000000 0.000000
vt 0.000000 -1.000000
vt -1.000000 -1.000000
vt -1.000000 0.000000
vn 0.000000 1.000000 -0.000000
vn 0.000000 -1.000000 0.000000
vn -1.000000 -0.000000 0.000000
vn 0.000000 0.000000 1.000000
vn 1.000000 0.000000 -0.000000
vn -0.000000 -0.000000 -1.000000
s off
f 1/1/1 2/2/1 3/3/1 4/4/1
f 5/5/2 8/6/2 7/7/2 6/8/2
f 1/1/3 5/5/3 6/9/3 2/10/3
f 2/11/4 6/12/4 7/13/4 3/14/4
f 3/15/5 7/16/5 8/17/5 4/18/5
f 5/19/6 1/20/6 4/21/6 8/22/6
o Cube
v -1.000000 0.500000 -0.500000
v -1.000000 0.500000 0.500000
v 1.000000 0.500000 0.500000
v 1.000000 0.500000 -0.500000
v -1.000000 -0.500000 -0.500000
v -0.999999 -0.500000 0.500000
v 1.000000 -0.500000 0.500000
v 1.000000 -0.500000 -0.500000
vt 0.000000 0.000000
vt 0.000000 -1.000000
vt -1.000000 -1.000000
vt -1.000000 0.000000
vt 0.000000 1.000000
vt -1.000000 1.000000
vt -1.000000 0.000000
vt -0.000000 -0.000000
vt -1.000000 1.000000
vt -1.000000 0.000000
vt 0.000000 0.000000
vt -0.000000 1.000000
vt -1.000000 1.000000
vt -1.000000 0.000000
vt 0.000000 0.000000
vt 0.000000 1.000000
vt 1.000000 1.000000
vt 1.000000 0.000000
vt 0.000000 0.000000
vt 0.000000 -1.000000
vt -1.000000 -1.000000
vt -1.000000 0.000000
vn 0.000000 1.000000 0.000000
vn 0.000000 -1.000000 0.000000
vn -1.000000 -0.000000 0.000000
vn 0.000000 0.000000 1.000000
vn 1.000000 0.000000 -0.000000
vn -0.000000 -0.000000 -1.000000
s off
f 9/23/7 10/24/7 11/25/7 12/26/7
f 13/27/8 16/28/8 15/29/8 14/30/8
f 9/23/9 13/27/9 14/31/9 10/32/9
f 10/33/10 14/34/10 15/35/10 11/36/10
f 11/37/11 15/38/11 16/39/11 12/40/11
f 13/41/12 9/42/12 12/43/12 16/44/12
