# Blender v2.77 (sub 0) OBJ File: ''
# www.blender.org
o Cube
v -0.100000 0.500000 -0.100000
v -0.100000 0.500000 0.100000
v 0.100000 0.500000 0.100000
v 0.100000 0.500000 -0.100000
v -0.100000 -0.500000 -0.100000
v -0.100000 -0.500000 0.100000
v 0.100000 -0.500000 0.100000
v 0.100000 -0.500000 -0.100000
vt 0.000000 0.000000
vt 0.000000 -1.000000
vt -1.000000 -1.000000
vt -1.000000 0.000000
vt 0.000000 1.000000
vt -1.000000 1.000000
vt -1.000000 0.000000
vt -0.000000 -0.000000
vt -1.000000 1.000000
vt -1.000000 0.000000
vt 0.000000 0.000000
vt -0.000000 1.000000
vt -1.000000 1.000000
vt -1.000000 0.000000
vt 0.000000 0.000000
vt 0.000000 1.000000
vt 1.000000 1.000000
vt 1.000000 0.000000
vt 0.000000 0.000000
vt 0.000000 -1.000000
vt -1.000000 -1.000000
vt -1.000000 0.000000
vn 0.000000 1.000000 -0.000000
vn 0.000000 -1.000000 0.000000
vn -1.000000 -0.000000 0.000000
vn 0.000000 0.000000 1.000000
vn 1.000000 0.000000 -0.000000
vn -0.000000 -0.000000 -1.000000
s off
f 1/1/1 2/2/1 3/3/1 4/4/1
f 5/5/2 8/6/2 7/7/2 6/8/2
f 1/1/3 5/5/3 6/9/3 2/10/3
f 2/11/4 6/12/4 7/13/4 3/14/4
f 3/15/5 7/16/5 8/17/5 4/18/5
f 5/19/6 1/20/6 4/21/6 8/22/6
